P2
128 99
255
0 0 0 0 0 0 0 0 0 0 0 0 0 0 0 0 0 0 0 0 0 0 0 0 0 0 0 0 0 0 0 0 0 0 0 0 0 0 0 0 0 0 0 0 0 0 0 0 0 0 0 0 0 0 0 0 0 0 0 0 0 0 0 0 0 0 0 0 0 0 0 0 0 0 0 0 0 0 0 0 0 0 0 0 0 0 0 0 0 0 0 0 0 0 0 1 2 0 0 
0 0 0 0 0 0 0 0 0 0 0 0 0 0 0 0 0 0 0 0 0 0 0 0 0 0 0 0 0 0 0 0 0 0 0 0 0 0 0 0 0 0 0 0 0 0 0 0 0 0 0 0 0 0 0 0 0 0 0 0 0 0 0 0 0 0 0 0 0 0 0 0 0 0 0 0 0 0 0 0 0 0 0 0 0 0 0 0 0 0 0 0 0 0 0 0 0 0 0 
0 0 0 0 0 0 0 0 0 0 0 0 0 0 0 0 0 0 0 0 0 0 0 0 0 1 2 0 0 0 0 0 0 0 0 0 0 0 0 0 0 0 0 0 0 0 0 0 0 0 0 0 0 0 0 0 0 0 0 0 0 0 0 0 0 0 0 0 0 0 0 0 0 0 0 0 0 0 0 0 0 0 0 0 0 0 0 0 0 0 0 0 0 0 0 0 0 0 0 
0 0 0 0 0 0 0 0 0 0 1 2 2 1 0 0 0 0 0 0 0 0 0 0 0 0 0 0 0 0 0 0 0 0 0 0 0 0 0 0 0 0 0 0 0 0 0 0 0 0 0 0 0 0 1 2 0 0 0 0 0 0 0 0 0 0 0 0 0 0 0 0 0 0 0 0 0 0 0 0 0 0 0 0 0 0 0 0 0 0 0 0 0 0 0 0 0 0 0 
0 0 0 0 0 0 0 0 0 0 0 0 0 0 0 0 0 0 0 0 0 0 0 0 0 0 0 0 0 0 0 0 7 15 19 21 20 22 25 29 32 32 29 24 21 18 16 13 4 0 0 0 0 0 0 0 0 0 0 0 0 0 0 0 0 0 0 0 0 0 0 0 0 0 0 0 0 0 0 0 0 0 0 1 2 0 0 0 0 0 0 0 0 0 0 0 0 0 0 
0 0 0 0 0 0 0 0 0 0 0 0 0 0 0 0 0 0 0 0 0 0 0 0 0 0 0 0 0 0 0 0 0 0 0 0 0 0 0 0 0 0 0 0 0 0 0 0 0 0 0 0 0 0 0 0 0 6 15 22 27 28 39 63 91 119 144 165 178 184 185 180 168 148 123 93 63 38 25 19 12 2 0 0 0 0 0 0 0 0 0 0 0 0 0 0 0 0 0 
0 0 0 0 0 0 0 0 0 0 0 0 0 1 2 0 0 0 0 0 0 0 0 0 0 0 0 0 0 0 0 0 0 0 0 0 0 0 0 0 0 0 0 0 0 0 0 0 0 0 0 0 0 0 0 0 0 0 0 0 0 0 0 0 0 0 0 0 0 0 0 0 0 0 0 0 0 0 0 0 0 0 0 1 10 19 27 29 41 79 132 179 207 219 225 229 230 228 226 
226 227 228 227 224 217 205 180 141 93 51 27 18 12 1 0 0 0 0 0 0 0 0 0 0 0 0 0 0 0 0 0 0 0 0 0 0 0 0 0 0 0 1 2 0 0 0 0 0 0 0 0 0 0 0 0 0 0 0 0 0 0 0 0 0 0 0 0 0 0 0 0 0 0 0 0 0 0 0 0 0 0 0 0 0 0 0 0 0 0 0 0 0 0 0 0 0 0 0 
0 0 0 0 0 0 0 0 0 0 0 0 10 25 28 29 60 122 182 215 227 230 231 231 234 237 240 241 241 240 241 240 238 235 231 229 228 222 211 188 146 90 45 21 15 2 0 0 0 0 0 0 0 0 0 0 0 0 0 0 0 0 0 0 0 0 0 0 0 0 0 1 2 0 0 0 0 0 0 0 0 0 0 0 0 0 0 0 0 0 0 0 0 0 0 0 0 0 0 
0 0 0 0 0 0 0 0 0 0 0 0 0 0 0 0 0 0 0 0 0 0 0 0 0 0 0 0 0 0 0 0 0 0 0 0 0 0 0 9 28 29 31 73 148 203 223 229 231 234 237 235 227 220 215 219 227 225 209 207 223 239 246 244 239 235 231 229 228 224 209 178 119 57 26 15 1 0 0 0 0 0 0 0 0 0 0 0 0 0 0 0 0 0 0 0 0 0 0 
0 1 2 0 0 0 0 0 0 0 0 0 0 0 0 0 0 0 0 0 0 0 0 0 0 0 0 0 0 0 0 0 0 0 0 0 0 0 0 0 0 0 0 0 0 0 0 0 0 0 0 0 0 0 0 0 0 0 0 0 0 0 0 0 0 0 5 31 29 27 69 154 208 222 225 229 234 238 234 224 213 199 188 185 186 188 185 177 178 184 195 216 240 250 247 242 238 233 230 
229 228 218 188 122 53 27 12 0 0 0 0 0 0 0 0 0 0 0 0 0 0 0 0 0 0 0 0 0 0 1 2 0 0 0 0 0 0 0 0 0 0 0 0 0 0 0 0 0 0 0 0 0 0 0 0 0 0 0 0 0 0 0 0 0 0 0 0 0 0 0 0 0 0 0 0 0 0 0 0 0 0 0 0 0 0 0 0 0 0 0 0 0 0 27 30 25 47 133 
204 220 222 226 231 238 234 215 198 192 184 172 166 163 168 176 177 173 177 180 182 185 200 223 245 251 250 246 241 235 231 229 228 218 178 94 35 22 2 0 0 0 0 0 0 0 0 0 0 0 0 0 0 0 0 0 0 0 0 1 2 0 0 0 0 0 0 0 0 0 0 0 0 0 0 0 0 0 0 0 0 0 0 0 0 0 0 0 0 0 0 0 0 0 0 0 0 0 0 
0 0 0 0 0 0 0 0 0 0 0 0 0 0 0 0 0 0 0 0 0 0 11 33 26 29 99 190 218 222 225 230 237 240 227 204 198 192 182 175 167 162 160 161 166 165 165 170 175 176 174 178 187 206 230 246 253 252 247 241 237 231 231 229 211 143 53 26 6 0 0 0 0 0 0 0 0 0 0 0 0 0 0 0 0 0 0 0 1 2 0 0 0 0 0 0 0 0 0 
0 0 0 0 0 0 0 0 0 0 0 0 0 0 0 0 0 0 0 0 0 0 0 0 0 0 0 0 0 0 0 0 0 0 0 0 0 0 0 0 0 0 0 0 0 0 0 0 0 0 25 28 21 56 158 213 219 224 232 237 242 236 217 205 197 190 186 181 177 172 169 166 159 161 158 157 169 177 176 176 177 182 189 202 221 237 249 254 252 247 241 237 234 231 223 181 80 27 12 
0 0 0 0 0 0 0 0 0 0 0 0 0 0 0 0 0 0 1 2 0 0 0 0 0 0 0 0 0 0 0 0 0 0 0 0 0 0 0 0 0 0 0 0 0 0 0 0 0 0 0 0 0 0 0 0 0 0 0 0 0 0 0 0 0 0 0 0 0 0 0 0 0 0 0 0 0 5 30 24 22 90 190 215 223 230 237 243 243 227 211 204 198 189 186 180 178 179 174 
175 166 155 153 150 150 163 174 174 175 178 180 183 194 206 215 227 240 250 255 252 245 239 235 230 223 195 101 28 14 0 0 0 0 0 0 0 0 0 0 0 0 0 0 0 0 0 1 2 0 0 0 0 0 0 0 0 0 0 0 0 0 0 0 0 0 0 0 0 0 0 0 0 0 0 0 0 0 0 0 0 0 0 0 0 0 0 0 0 0 0 0 0 0 0 0 0 0 0 
0 0 0 0 0 0 12 29 21 30 120 201 216 228 236 242 246 238 220 208 201 197 192 186 181 177 177 178 177 167 160 148 147 143 146 151 165 177 180 182 182 182 185 193 202 210 217 227 240 250 254 249 242 235 227 223 201 113 31 15 0 0 0 0 0 0 0 0 0 0 0 0 0 0 0 0 1 2 0 0 0 0 0 0 0 0 0 0 0 0 0 0 0 0 0 0 0 0 0 
0 0 0 0 0 0 0 0 0 0 0 0 0 0 0 0 0 0 0 0 0 0 0 0 0 0 0 0 0 0 0 0 0 0 16 26 19 39 140 204 217 231 240 246 242 227 212 205 202 196 192 188 186 182 176 174 165 156 155 149 145 143 141 145 147 147 158 173 177 176 177 179 183 190 195 201 208 214 222 237 248 250 245 236 228 224 206 125 35 15 0 0 0 0 0 0 0 0 0 
0 0 0 0 0 0 1 2 0 0 0 0 0 0 0 0 0 0 0 0 0 0 0 0 0 0 0 0 0 0 0 0 0 0 0 0 0 0 0 0 0 0 0 0 0 0 0 0 0 0 0 0 0 0 0 0 0 0 0 0 0 3 21 23 17 52 154 201 218 233 241 245 232 214 205 202 200 197 192 187 181 175 166 161 152 146 147 143 143 143 140 137 144 147 147 146 150 161 171 
172 172 174 181 188 191 195 197 202 209 223 239 247 245 237 227 223 208 140 42 14 0 0 0 0 0 0 0 0 0 0 0 0 0 0 1 2 0 0 0 0 0 0 0 0 0 0 0 0 0 0 0 0 0 0 0 0 0 0 0 0 0 0 0 0 0 0 0 0 0 0 0 0 0 0 0 0 0 0 0 0 0 0 0 0 0 0 0 0 6 20 19 19 67 166 199 220 235 244 
242 220 206 200 198 195 194 191 186 179 170 164 161 150 143 143 139 142 142 142 136 135 143 145 146 146 147 148 152 155 158 162 169 176 180 183 188 194 198 201 209 228 242 244 236 230 225 207 150 45 10 0 0 0 0 0 0 0 0 0 0 0 0 0 1 2 0 0 0 0 0 0 0 0 0 0 0 0 0 0 0 0 0 0 0 0 0 0 0 0 0 0 0 0 0 0 0 0 0 
0 0 0 0 0 0 0 0 0 0 0 0 0 0 0 0 0 0 7 18 17 21 84 177 200 220 238 245 235 207 196 196 195 190 183 178 176 173 170 166 158 148 143 142 138 140 142 140 138 131 130 141 142 144 146 146 146 149 151 153 155 159 164 167 170 174 178 184 187 192 199 217 234 241 237 231 223 209 156 43 7 0 0 0 0 0 0 0 0 0 0 0 0 1 2 0 0 0 0 
0 0 0 0 0 0 0 0 0 0 0 0 0 0 0 0 0 0 0 0 0 0 0 0 0 0 0 0 0 0 0 0 0 0 0 0 0 0 0 0 0 0 0 0 0 0 6 18 15 22 93 180 200 218 235 243 230 201 190 191 189 184 177 172 170 165 158 153 149 146 143 143 140 136 139 139 134 136 126 128 139 140 142 144 145 144 145 147 148 149 151 151 152 158 166 172 174 173 176 
184 193 209 229 241 238 232 220 206 146 33 3 0 0 0 0 0 0 0 0 0 0 0 1 2 0 0 0 0 0 0 0 0 0 0 0 0 0 0 0 0 0 0 0 0 0 0 0 0 0 0 0 0 0 0 0 0 0 0 0 0 0 0 0 0 0 0 0 0 0 0 0 0 0 5 18 15 23 99 181 198 213 231 241 223 197 189 186 183 182 174 165 160 157 153 148 146 143 142 
143 138 134 134 136 133 133 130 124 128 140 141 140 142 142 143 144 143 144 143 143 145 145 151 156 166 172 170 169 172 178 189 203 224 241 239 229 216 200 128 23 2 0 0 0 0 0 0 0 0 0 0 1 2 0 0 0 0 0 0 0 0 0 0 0 0 0 0 0 0 0 0 0 0 0 0 0 0 0 0 0 0 0 0 0 0 0 0 0 0 0 0 0 0 0 0 0 0 0 
0 0 0 2 17 15 22 95 177 193 209 227 240 220 195 186 183 178 175 171 162 155 152 150 146 145 141 139 138 134 132 132 132 131 133 129 120 121 124 136 138 139 141 140 140 142 144 141 140 138 138 141 145 153 158 160 165 165 167 171 178 186 197 219 241 235 225 210 189 98 12 0 0 0 0 0 0 0 0 0 0 1 2 0 0 0 0 0 0 0 0 0 0 0 0 0 0 0 0 
0 0 0 0 0 0 0 0 0 0 0 0 0 0 0 0 0 0 0 0 0 0 0 0 0 0 0 0 0 0 0 0 12 14 19 86 169 187 203 221 237 219 192 185 180 175 171 170 163 151 149 148 145 144 141 136 132 131 132 132 130 127 127 129 119 118 122 123 128 133 134 136 135 136 139 141 137 137 136 134 135 141 147 153 155 154 157 158 162 170 177 186 193 221 240 234 221 203 170 
63 4 0 0 0 0 0 0 0 0 0 1 2 0 0 0 0 0 0 0 0 0 0 0 0 0 0 0 0 0 0 0 0 0 0 0 0 0 0 0 0 0 0 0 0 0 0 0 0 0 0 0 0 0 0 0 0 0 0 0 6 14 16 70 159 180 197 216 233 220 189 182 178 171 168 164 157 150 147 146 146 145 141 135 131 130 131 130 128 125 125 124 120 116 118 121 123 127 127 
126 129 130 128 127 130 132 133 131 130 129 132 144 146 150 150 150 152 155 160 168 175 181 188 224 240 231 215 193 140 29 1 0 0 0 0 0 0 0 0 1 3 0 0 0 0 0 0 0 0 0 0 0 0 0 0 0 0 0 0 0 0 0 0 0 0 0 0 0 0 0 0 0 0 0 0 0 0 0 0 0 0 0 0 0 0 0 0 1 13 15 55 146 174 191 209 228 222 190 
178 174 170 169 161 154 151 150 149 146 142 137 133 130 126 120 118 117 119 120 121 123 123 121 126 124 123 126 123 121 124 124 124 124 125 128 129 128 127 129 129 131 141 145 145 144 145 151 156 162 173 174 175 191 230 237 223 205 177 94 8 0 0 0 0 0 0 0 0 2 3 0 0 0 0 0 0 0 0 0 0 0 0 0 0 0 0 0 0 0 0 0 0 0 0 0 0 0 0 
0 0 0 0 0 0 0 0 0 0 0 0 0 0 0 0 0 0 8 12 30 122 164 182 202 221 223 195 177 171 168 167 165 156 150 149 145 143 138 135 132 128 121 116 115 118 119 118 119 121 122 122 123 128 126 122 123 120 121 120 120 121 123 123 123 126 127 128 128 129 130 134 139 140 142 142 144 152 160 169 170 171 173 202 231 228 213 193 146 35 1 0 0 0 0 0 0 0 1 
2 0 0 0 0 0 0 0 0 0 0 0 0 0 0 0 0 0 0 0 0 0 0 0 0 0 0 0 0 0 0 0 0 0 0 0 0 0 0 0 0 0 0 0 0 0 2 10 15 88 155 173 191 212 216 203 177 166 164 164 166 161 153 147 143 144 141 133 132 127 122 117 117 118 119 119 118 118 121 121 120 122 129 128 123 126 122 121 121 121 121 120 121 124 124 125 124 126 126 
128 130 134 136 142 142 143 148 156 165 165 165 164 176 213 227 218 200 171 81 4 0 0 0 0 0 0 0 1 2 0 0 0 0 0 0 0 0 0 0 0 0 0 0 0 0 0 0 0 0 0 0 0 0 0 0 0 0 0 0 0 0 0 0 0 0 0 0 0 0 0 0 0 0 0 6 10 47 136 162 180 204 211 200 189 165 159 161 164 164 158 150 144 142 139 135 127 125 124 
121 118 118 118 117 117 120 122 123 122 119 122 131 132 127 126 115 117 122 122 121 119 117 120 122 122 123 122 123 125 127 130 131 139 142 140 145 156 166 164 162 156 162 193 216 220 206 183 127 19 0 0 0 0 0 0 0 1 2 0 0 0 0 0 0 0 0 0 0 0 0 0 0 0 0 0 0 0 0 0 0 0 0 0 0 0 0 0 0 0 0 0 0 0 0 0 0 0 0 
0 0 0 0 0 8 17 99 150 171 190 210 195 193 171 157 157 159 163 159 153 143 137 136 137 131 124 125 123 119 118 117 116 118 119 118 121 123 123 124 121 124 130 130 122 113 114 115 122 122 120 117 118 119 122 124 126 125 126 127 129 131 135 142 142 146 153 162 164 158 152 155 183 204 216 209 190 154 45 2 0 0 0 0 0 0 1 2 0 0 0 0 0 0 0 0 0 0 0 
0 0 0 0 0 0 0 0 0 0 0 0 0 0 0 0 0 0 0 0 0 0 0 0 0 0 0 0 0 0 0 0 0 3 7 43 132 159 177 201 203 189 182 159 153 154 157 161 155 146 142 139 137 134 127 126 125 120 117 117 117 116 117 118 118 121 124 125 124 119 117 121 129 116 111 110 114 118 115 118 119 119 118 119 123 127 126 128 128 128 129 132 140 141 143 154 161 161 153 
149 148 176 195 215 211 196 167 72 3 0 0 0 0 0 0 1 3 0 0 0 0 0 0 0 0 0 0 0 0 0 0 0 0 0 0 0 0 0 0 0 0 0 0 0 0 0 0 0 0 0 0 0 0 0 0 0 0 0 0 0 0 4 10 81 147 164 184 205 187 180 171 153 153 150 153 155 148 144 143 140 138 130 124 125 124 121 119 118 118 118 116 118 120 121 120 121 122 118 
116 118 125 117 111 111 113 112 111 112 114 119 119 120 123 125 127 129 132 131 129 132 138 139 141 153 160 153 149 146 141 168 187 210 213 197 174 97 7 1 0 0 0 0 0 1 3 0 0 0 0 0 0 0 0 0 0 0 0 0 0 0 0 0 0 0 0 0 0 0 0 0 0 0 0 0 0 0 0 0 0 0 0 0 0 0 0 0 0 0 0 6 19 112 153 172 194 196 171 
170 162 148 147 146 149 149 141 143 143 142 138 128 127 128 125 121 118 120 122 117 115 116 121 119 117 120 121 117 114 116 124 116 112 112 113 114 114 114 113 115 119 124 125 126 130 131 132 133 132 133 137 139 140 149 154 149 145 144 141 160 180 205 213 198 179 117 12 1 0 0 0 0 0 2 3 0 0 0 0 0 0 0 0 0 0 0 0 0 0 0 0 0 0 0 0 0 0 0 
0 0 0 0 0 0 0 0 0 0 0 0 0 0 0 0 0 0 0 0 1 6 39 134 158 180 196 176 160 163 159 147 141 141 142 145 138 140 142 139 137 132 129 128 124 120 121 120 115 114 115 116 117 117 116 117 118 115 114 114 123 115 112 112 113 114 114 116 118 120 118 123 129 128 131 133 133 133 135 136 137 139 141 146 147 147 142 138 138 158 184 202 214 202 182 136 19 1 0 
0 0 0 0 2 3 0 0 0 0 0 0 0 0 0 0 0 0 0 0 0 0 0 0 0 0 0 0 0 0 0 0 0 0 0 0 0 0 0 0 0 0 0 0 0 0 0 0 0 2 7 58 143 164 186 187 165 154 158 160 145 136 137 139 143 137 136 139 138 136 132 128 131 125 121 118 112 112 114 113 113 114 116 116 113 114 114 112 116 116 113 112 109 109 110 112 117 118 119 
120 120 126 133 131 137 139 137 136 136 137 139 140 145 141 140 138 134 133 155 180 195 214 206 187 152 30 1 0 0 0 0 0 2 3 0 0 0 0 0 0 0 0 0 0 0 0 0 0 0 0 0 0 0 0 0 0 0 0 0 0 0 0 0 0 0 0 0 0 0 0 0 0 0 0 0 0 0 2 8 74 148 171 190 179 161 151 158 160 143 132 131 136 141 134 131 139 138 135 
134 132 131 127 123 116 110 111 112 112 112 113 114 114 111 110 111 116 120 115 110 108 106 105 109 110 112 116 117 120 120 121 127 130 133 139 139 138 138 138 139 139 144 135 131 136 135 134 156 182 196 215 212 193 164 44 2 0 0 0 0 0 2 3 0 0 0 0 0 0 0 0 0 0 0 0 0 0 0 0 0 0 0 0 0 0 0 0 0 0 0 0 0 0 0 0 0 0 0 
0 0 0 0 0 0 0 0 3 10 86 153 176 188 177 165 154 157 158 144 134 128 135 136 126 129 140 137 136 134 132 133 127 125 126 117 115 112 110 112 111 111 111 110 110 110 116 120 116 110 108 107 103 105 107 111 112 116 117 116 116 125 130 137 145 144 141 141 140 141 140 144 131 128 132 130 133 162 182 196 214 215 198 176 59 3 0 0 0 0 0 2 3 0 0 0 0 0 0 
0 0 0 0 0 0 0 0 0 0 0 0 0 0 0 0 0 0 0 0 0 0 0 0 0 0 0 0 0 0 0 0 0 0 0 0 0 4 12 96 159 182 191 178 168 158 158 160 147 134 128 133 131 123 128 141 137 136 135 134 136 134 130 132 134 131 123 115 114 114 114 114 114 110 110 114 117 118 111 109 108 104 102 107 109 111 117 116 116 122 130 137 143 144 145 147 147 145 143 
143 150 135 128 128 128 137 164 180 194 216 216 203 185 74 4 0 0 0 0 0 2 3 0 0 0 0 0 0 0 0 0 0 0 0 0 0 0 0 0 0 0 0 0 0 0 0 0 0 0 0 0 0 0 0 0 0 0 0 0 0 0 0 0 0 0 4 14 101 163 187 196 182 173 163 161 162 148 138 131 131 129 121 127 144 140 139 140 143 139 130 119 114 115 111 112 119 122 120 
116 115 114 113 113 117 116 122 113 109 109 104 100 104 107 109 115 122 127 121 116 113 114 118 122 130 139 152 157 151 155 149 134 128 132 146 164 178 189 214 220 206 188 91 7 0 0 0 0 0 2 3 0 0 0 0 0 0 0 0 0 0 0 0 0 0 0 0 0 0 0 0 0 0 0 0 0 0 0 0 0 0 0 0 0 0 0 0 0 0 0 0 0 0 0 5 15 105 167 
189 197 179 173 169 167 164 152 142 134 130 122 121 133 148 141 146 148 135 126 115 103 96 99 100 99 101 107 115 124 121 114 109 109 114 116 125 118 111 109 104 100 102 103 112 124 120 112 109 106 109 109 109 112 116 119 130 150 165 164 164 146 133 142 151 163 172 182 207 222 210 191 108 9 0 0 0 0 0 2 2 0 0 0 0 0 0 0 0 0 0 0 0 0 0 0 0 0 0 
0 0 0 0 0 0 0 0 0 0 0 0 0 0 0 0 0 0 0 0 0 0 0 0 0 6 16 110 172 193 195 181 174 168 166 167 162 152 141 134 121 123 142 151 148 152 134 117 109 104 99 97 101 100 98 98 100 104 111 119 120 110 110 113 117 122 122 116 111 104 101 101 109 122 109 106 105 106 111 114 113 115 119 118 115 117 131 159 179 173 162 146 149 155 158 164 175 193 219 
212 194 124 12 0 0 0 0 0 1 2 0 0 0 0 0 0 0 0 0 0 0 0 0 0 0 0 0 0 0 0 0 0 0 0 0 0 0 0 0 0 0 0 0 0 0 0 0 0 0 0 0 0 0 8 16 113 175 193 195 178 171 165 162 162 162 158 147 141 132 129 148 158 158 133 113 109 107 103 102 105 108 106 101 98 101 105 110 111 119 113 113 117 120 126 129 127 118 109 
105 102 119 112 102 101 102 108 112 115 117 118 121 124 125 127 135 152 180 179 169 159 154 151 152 157 167 181 211 214 196 141 19 0 0 0 0 0 1 3 0 0 0 0 0 0 0 0 0 0 0 0 0 0 0 0 0 0 0 0 0 0 0 0 0 0 0 0 0 0 0 0 0 0 0 0 0 0 0 0 0 0 0 8 16 114 177 197 197 172 165 162 161 156 154 155 151 145 143 
152 153 164 150 118 110 107 105 103 104 106 105 104 104 101 101 103 105 112 116 118 115 123 130 137 135 141 124 114 106 105 121 102 96 95 101 109 113 116 120 120 124 127 126 133 147 155 162 173 168 168 156 148 145 150 158 170 201 213 196 153 28 0 0 0 0 0 2 2 0 0 0 0 0 0 0 0 0 0 0 0 0 0 0 0 0 0 0 0 0 0 0 0 0 0 0 0 0 0 
0 0 0 0 0 0 0 0 0 0 0 0 0 8 18 117 180 199 198 162 158 159 157 154 147 150 153 146 142 157 164 171 147 129 120 116 112 108 106 103 102 101 103 103 102 103 105 112 117 117 117 124 135 145 137 147 128 116 109 114 116 96 91 97 106 112 115 116 119 121 124 128 127 136 141 142 146 155 166 170 157 145 142 145 145 158 190 212 197 161 40 1 0 0 0 0 2 3 0 
0 0 0 0 0 0 0 0 0 0 0 0 0 0 0 0 0 0 0 0 0 0 0 0 0 0 0 0 0 0 0 0 0 0 0 0 0 0 0 0 0 0 9 18 118 180 201 199 158 157 158 153 148 142 143 143 141 143 155 157 160 148 141 131 122 117 115 110 105 103 103 105 104 103 105 106 109 116 114 117 124 136 138 133 139 136 123 117 117 108 93 94 103 110 112 114 114 115 117 
120 125 128 131 133 138 140 146 161 166 157 141 135 136 137 144 177 207 197 165 51 2 0 0 0 0 2 2 0 0 0 0 0 0 0 0 0 0 0 0 0 0 0 0 0 0 0 0 0 0 0 0 0 0 0 0 0 0 0 0 0 0 0 0 0 0 0 0 0 0 0 9 19 122 184 204 196 154 155 154 147 140 132 134 138 140 143 146 146 146 137 129 126 119 114 111 108 105 99 
101 102 104 107 107 107 107 112 116 118 124 123 123 129 128 134 128 124 117 101 95 100 105 108 108 110 109 110 114 117 119 123 130 132 136 134 145 160 164 155 135 130 131 133 136 162 201 197 169 60 3 0 0 0 0 2 3 0 0 0 0 0 0 0 0 0 0 0 0 0 0 0 0 0 0 0 0 0 0 0 0 0 0 0 0 0 0 0 0 0 0 0 0 0 0 0 0 0 0 
0 9 19 122 185 204 191 148 148 143 138 129 122 126 132 136 147 145 139 138 133 120 120 113 109 105 105 105 101 98 101 104 106 105 104 106 108 115 119 130 127 120 122 122 133 129 130 123 102 100 101 105 102 99 104 107 108 112 115 119 121 125 128 129 131 145 158 159 156 139 128 125 127 127 148 184 194 172 69 3 0 0 0 0 2 3 0 0 0 0 0 0 0 0 0 0 0 0 0 
0 0 0 0 0 0 0 0 0 0 0 0 0 0 0 0 0 0 0 0 0 0 0 0 0 0 0 0 0 0 9 20 120 186 204 183 140 138 134 129 121 115 118 123 130 146 147 139 134 132 119 116 109 104 103 102 102 98 99 102 102 103 101 101 106 103 104 121 140 144 131 116 118 110 134 126 117 106 106 105 106 94 96 103 105 109 112 114 117 119 121 128 127 131 144 153 153 160 149 
128 124 128 129 143 162 182 174 75 4 0 0 0 0 1 2 0 0 0 0 0 0 0 0 0 0 0 0 0 0 0 0 0 0 0 0 0 0 0 0 0 0 0 0 0 0 0 0 0 0 0 0 0 0 0 0 0 0 0 9 19 118 185 203 173 137 132 126 123 119 117 117 118 133 141 143 138 133 131 122 113 109 106 104 104 104 102 98 99 102 105 103 105 109 102 99 116 136 143 
120 107 110 97 120 136 108 111 106 105 99 96 101 104 107 109 110 112 115 116 118 123 124 133 146 154 161 163 153 129 123 125 129 142 157 182 174 76 4 0 0 0 0 1 2 0 0 0 0 0 0 0 0 0 0 0 0 0 0 0 0 0 0 0 0 0 0 0 0 0 0 0 0 0 0 0 0 0 0 0 0 0 0 0 0 0 0 0 8 19 111 182 200 162 136 128 126 125 120 
118 118 120 134 136 139 138 135 131 123 114 109 107 105 105 105 104 101 97 97 100 102 105 108 98 98 118 136 128 101 95 102 92 100 142 102 107 104 100 96 102 105 106 108 108 111 113 114 114 119 121 123 139 156 164 159 158 153 130 123 121 128 139 157 185 167 73 3 0 0 0 0 1 2 0 0 0 0 0 0 0 0 0 0 0 0 0 0 0 0 0 0 0 0 0 0 0 0 0 
0 0 0 0 0 0 0 0 0 0 0 0 0 0 0 0 0 0 6 17 101 180 197 157 133 127 124 124 120 117 116 120 134 134 135 138 141 133 121 119 110 104 106 108 106 104 102 100 94 92 95 99 105 97 102 121 128 106 99 96 104 90 92 131 122 104 100 96 95 105 105 105 108 110 113 113 113 113 119 118 120 139 163 158 152 157 151 128 122 120 126 136 156 184 161 67 3 0 0 
0 0 1 2 0 0 0 0 0 0 0 0 0 0 0 0 0 0 0 0 0 0 0 0 0 0 0 0 0 0 0 0 0 0 0 0 0 0 0 0 0 0 0 0 0 0 0 5 17 93 175 196 160 135 128 122 122 122 116 114 115 131 136 134 136 141 136 121 120 112 110 111 112 110 107 103 100 97 92 93 97 99 89 103 124 123 103 100 104 111 95 90 106 133 108 99 92 95 104 
105 107 109 112 110 108 110 114 117 114 120 139 156 151 148 155 150 126 122 120 124 133 159 179 154 59 2 0 0 0 0 1 2 0 0 0 0 0 0 0 0 0 0 0 0 0 0 0 0 0 0 0 0 0 0 0 0 0 0 0 0 0 0 0 0 0 0 0 0 0 0 0 0 0 0 0 2 16 85 169 191 166 136 127 121 120 121 119 114 111 126 136 136 136 143 136 120 117 113 
111 112 112 112 110 105 99 93 92 91 94 94 91 109 126 108 100 99 109 117 101 94 92 127 119 113 101 97 104 107 108 108 108 106 106 109 114 113 112 118 137 148 148 147 152 147 124 123 120 121 132 163 173 144 52 3 0 0 0 0 1 2 0 0 0 0 0 0 0 0 0 0 0 0 0 0 0 0 0 0 0 0 0 0 0 0 0 0 0 0 0 0 0 0 0 0 0 0 0 
0 0 0 6 5 0 0 14 74 160 186 167 138 125 119 118 120 121 115 108 120 136 137 137 142 132 121 116 115 111 111 109 109 108 107 104 97 92 100 111 107 103 113 115 103 97 98 114 116 103 98 94 108 128 130 126 118 112 110 110 113 111 106 108 110 114 109 110 119 136 143 145 150 153 146 124 119 116 117 132 166 166 130 45 2 0 0 0 0 1 2 0 0 0 0 0 0 0 0 
0 0 0 0 0 0 0 0 0 0 0 0 0 0 0 0 0 0 0 0 0 0 0 0 0 0 0 0 0 0 0 0 3 10 3 1 10 61 150 183 166 137 124 116 117 120 121 114 107 122 138 138 136 140 133 120 115 115 113 110 108 107 108 115 115 110 102 106 110 114 107 121 107 103 97 98 111 111 106 104 99 102 137 142 142 131 119 113 108 110 113 108 105 105 109 109 109 120 138 
142 144 149 156 152 126 114 115 117 133 167 159 119 39 2 0 0 0 0 1 2 0 0 0 0 0 0 0 0 0 0 0 0 0 0 0 0 0 0 0 0 0 0 0 0 0 0 0 0 0 0 0 0 0 0 0 0 0 0 0 0 2 5 10 3 8 49 138 176 165 133 121 113 114 120 121 117 107 122 138 139 136 139 136 122 117 117 113 109 109 108 111 115 113 108 110 122 128 121 
114 124 97 99 96 98 114 109 100 105 104 111 142 146 135 126 130 130 126 122 117 111 106 104 110 116 121 125 144 149 145 148 159 161 137 114 114 118 141 167 153 110 31 1 0 0 0 0 1 2 0 0 0 0 0 0 0 0 0 0 0 0 0 0 0 0 0 0 0 0 0 0 0 0 0 0 0 0 0 0 0 0 0 0 0 0 0 0 0 0 0 3 11 4 8 37 121 170 168 
134 123 118 117 119 119 118 110 124 137 139 141 147 145 135 121 117 114 109 111 117 118 119 119 119 123 115 116 111 125 127 97 96 97 98 121 109 100 101 99 105 138 156 135 125 127 133 145 160 154 146 142 146 144 148 149 156 161 147 141 151 162 163 149 122 116 127 152 168 142 101 21 1 0 1 9 5 1 2 0 0 0 0 0 0 0 0 0 0 0 0 0 0 0 0 0 0 0 0 
0 0 0 0 0 0 0 0 0 0 0 0 0 0 0 0 0 0 0 0 0 2 11 6 7 29 108 164 174 139 129 125 115 114 119 118 117 128 135 139 140 147 146 147 150 139 131 130 132 136 134 132 125 108 106 117 117 114 124 126 95 96 101 101 119 108 94 95 97 105 144 156 131 125 125 130 144 173 179 170 173 178 175 169 155 155 161 159 151 151 162 163 151 140 130 127 163 160 137 
92 14 4 2 6 3 2 1 2 0 0 0 0 0 0 0 0 0 0 0 0 0 0 0 0 0 0 0 0 0 0 0 0 0 0 0 0 0 0 0 0 0 0 0 0 0 0 0 0 0 1 10 6 8 22 96 155 180 157 132 124 112 110 118 123 132 132 137 141 142 141 142 138 143 147 150 151 141 136 131 130 122 117 118 118 113 111 122 127 103 99 108 105 123 110 93 95 103 116 
151 154 135 125 126 132 149 172 177 175 180 175 169 162 150 155 151 165 169 163 160 162 156 148 150 168 167 142 134 80 10 4 3 5 2 0 1 2 0 0 0 0 0 0 0 0 0 0 0 0 0 0 0 0 0 0 0 0 0 0 0 0 0 0 0 0 0 0 0 0 0 0 0 0 0 0 0 0 0 1 8 7 10 15 80 144 176 175 137 126 113 115 129 138 135 139 145 142 142 
147 153 156 153 146 149 146 143 143 140 132 123 113 110 110 108 111 118 129 117 103 104 107 125 112 97 104 114 125 139 140 137 132 133 140 154 170 172 171 172 166 167 173 175 170 173 175 181 188 183 176 174 170 179 192 164 131 128 62 8 3 3 3 1 0 1 2 0 0 0 0 0 0 0 0 0 0 0 0 0 0 0 0 0 0 0 0 0 0 0 0 0 0 0 0 0 0 0 0 
0 0 0 0 0 0 0 0 0 0 8 9 10 15 64 135 172 181 155 133 131 137 139 147 146 147 156 151 142 156 169 175 182 180 167 165 162 150 134 121 112 113 108 103 104 113 130 130 110 110 111 104 126 111 103 105 119 127 128 136 127 134 137 141 159 179 181 182 181 178 182 183 172 157 165 166 176 191 195 202 206 199 207 211 153 142 123 38 8 5 3 2 1 0 1 2 0 0 0 
0 0 0 0 0 0 0 0 0 0 0 0 0 0 0 0 0 0 0 0 0 0 0 0 0 0 0 0 0 0 0 0 0 0 0 0 0 0 0 8 11 9 10 43 129 169 178 173 159 171 160 159 165 165 165 160 153 153 163 179 184 189 185 173 177 172 157 134 127 122 117 109 107 108 124 134 116 105 108 113 113 138 118 102 100 111 121 122 131 131 129 137 140 145 159 169 177 182 177 
173 167 156 158 158 163 173 187 197 202 211 216 212 190 145 142 101 19 7 6 3 2 1 0 1 2 0 0 0 0 0 0 0 0 0 0 0 0 0 0 0 0 0 0 0 0 0 0 0 0 0 0 0 0 0 0 0 0 0 0 0 0 0 0 0 0 0 0 5 12 8 8 14 72 152 175 175 179 200 208 188 186 182 169 162 161 164 179 186 184 183 188 179 173 173 164 139 129 128 
127 118 113 111 122 130 119 106 109 118 116 134 138 111 98 105 112 122 126 123 132 136 137 139 143 157 162 160 151 157 157 151 158 167 169 172 179 188 197 199 200 195 171 142 138 110 20 7 8 5 2 1 0 1 2 0 0 0 0 0 0 0 0 0 0 0 0 0 0 0 0 0 0 0 0 0 0 0 0 0 0 0 0 0 0 0 0 0 0 0 0 0 0 0 0 0 0 7 10 
6 7 11 43 137 178 178 184 203 204 201 196 193 188 178 160 151 165 177 188 187 188 184 178 179 161 132 124 128 129 125 118 117 130 127 121 112 112 121 123 140 138 117 99 96 102 114 122 119 118 132 137 138 144 154 157 147 143 145 138 149 160 169 165 166 165 172 182 199 186 165 142 144 140 74 9 5 8 6 2 1 0 1 2 0 0 0 0 0 0 0 0 0 0 0 0 0 0 0 
0 0 0 0 0 0 0 0 0 0 0 0 0 0 0 0 0 0 0 0 0 0 0 0 0 0 0 7 7 5 5 10 26 109 172 175 176 184 187 175 194 196 190 178 166 159 154 162 172 185 187 184 177 170 153 139 128 126 130 132 118 115 131 119 115 117 117 115 108 131 141 127 99 98 108 113 121 129 128 128 120 120 137 151 154 155 154 145 146 164 172 174 168 173 164 165 173 186 159 
145 149 149 129 37 7 5 7 7 2 1 0 1 2 0 0 0 0 0 0 0 0 0 0 0 0 0 0 0 0 0 0 0 0 0 0 0 0 0 0 0 0 0 0 0 0 0 0 0 0 0 0 0 0 0 0 5 5 5 4 9 19 73 160 175 170 163 174 174 167 176 178 171 166 169 156 150 158 165 169 173 170 161 152 144 124 121 121 118 116 121 135 118 124 131 127 120 110 119 
139 141 111 109 116 112 123 138 140 145 128 108 111 122 129 136 145 142 146 168 179 184 180 176 167 166 158 162 156 140 140 142 92 18 8 7 8 4 3 2 0 1 2 0 0 0 0 0 0 0 0 0 0 0 0 0 0 0 0 0 0 0 0 0 0 0 0 0 0 0 0 0 0 0 0 0 0 0 0 0 0 0 0 0 0 4 5 4 4 9 17 39 134 162 158 157 167 173 169 
162 157 155 161 175 175 155 141 145 161 169 165 156 149 127 112 108 118 125 123 126 147 128 137 138 136 129 117 117 145 145 124 119 122 125 126 143 146 149 141 113 103 104 114 124 134 149 161 165 174 185 188 182 177 173 167 163 144 120 122 132 50 12 7 7 7 2 3 3 1 1 2 0 0 0 0 0 0 0 0 0 0 0 0 0 0 0 0 0 0 0 0 0 0 0 0 0 0 0 
0 0 0 0 0 0 0 0 0 0 0 0 0 0 0 3 5 4 3 10 17 20 97 145 146 153 162 171 164 162 158 153 156 173 179 163 140 136 155 167 167 162 139 113 100 113 120 126 126 132 144 144 142 142 151 151 134 130 161 154 135 125 133 136 133 148 150 149 143 124 103 100 112 131 138 157 156 152 166 177 187 191 205 193 173 147 127 102 113 102 23 13 7 8 7 2 3 3 0 
1 2 0 0 0 0 0 0 0 0 0 0 0 0 0 0 0 0 0 0 0 0 0 0 0 0 0 0 0 0 0 0 0 0 0 0 0 0 0 0 0 0 0 0 3 5 4 2 6 15 15 56 139 154 146 161 176 175 168 164 161 167 171 175 157 138 138 139 145 143 136 126 115 106 119 121 129 140 146 147 152 156 159 167 169 174 179 179 165 161 163 155 151 151 166 166 159 149 128 
109 107 123 144 137 133 148 144 158 174 189 201 212 200 161 135 114 105 121 67 14 14 8 8 6 3 2 3 0 1 2 0 0 0 0 0 0 0 0 0 0 0 0 0 0 0 0 0 0 0 0 0 0 0 0 0 0 0 0 0 0 0 0 0 0 0 0 0 0 0 0 0 0 2 5 4 2 5 12 16 30 120 147 134 146 158 185 184 181 171 175 173 175 166 153 148 134 138 128 
113 107 122 125 131 132 138 152 164 162 165 174 177 177 181 192 201 205 195 186 180 169 167 173 190 193 180 159 145 141 138 142 148 130 132 146 143 146 175 186 207 203 191 151 122 100 101 115 37 12 13 7 7 6 2 2 3 1 1 2 0 0 0 0 0 0 0 0 0 0 0 0 0 0 0 0 0 0 0 0 0 0 0 0 0 0 0 0 0 0 0 0 0 0 0 0 0 0 0 
0 0 1 3 6 3 2 5 12 14 17 80 139 140 131 142 176 192 190 181 174 171 175 173 157 153 143 140 132 121 119 128 158 156 153 153 160 173 178 176 177 168 167 171 172 173 179 183 178 170 161 163 170 189 199 196 177 170 167 161 168 140 124 125 135 140 135 166 183 209 191 173 151 135 113 118 96 22 10 10 6 6 5 3 3 3 1 1 2 0 0 0 0 0 0 0 0 0 0 
0 0 0 0 0 0 0 0 0 0 0 0 0 0 0 0 0 0 0 0 0 0 0 0 0 0 0 0 0 0 0 1 4 6 3 1 5 10 11 14 48 111 133 133 136 159 183 192 191 175 171 169 173 163 151 139 140 139 140 146 153 161 180 183 176 179 179 181 187 179 173 167 173 170 177 173 174 174 175 165 168 171 183 200 197 198 192 181 184 173 133 116 115 124 138 145 165 186 203 
180 153 131 121 128 116 78 18 9 9 6 5 5 3 4 3 1 1 2 0 0 0 0 0 0 0 0 0 0 0 0 0 0 0 0 0 0 0 0 0 0 0 0 0 0 0 0 0 0 0 0 0 0 0 0 0 0 0 0 0 0 5 15 10 3 5 9 10 13 33 96 134 143 129 141 163 188 191 181 164 163 165 158 144 130 130 132 136 143 153 163 184 198 199 193 189 190 189 180 
177 174 184 186 186 179 171 175 179 163 164 166 175 187 195 200 193 183 186 173 130 104 112 130 146 169 182 190 195 176 151 114 102 115 116 68 18 8 6 7 4 4 4 4 3 2 1 2 0 0 0 0 0 0 0 0 0 0 0 0 0 0 0 0 0 0 0 0 0 0 0 0 0 0 0 0 0 0 0 0 0 0 0 0 0 0 0 0 0 0 5 14 14 10 8 9 12 15 24 
77 120 139 135 134 139 173 178 192 166 152 152 157 130 119 121 124 132 137 140 151 172 192 197 197 192 196 192 187 185 185 195 194 191 183 159 160 167 153 150 157 171 174 196 204 201 196 191 174 130 109 113 126 141 188 206 207 204 181 126 103 100 115 108 46 18 6 4 6 5 3 4 4 4 2 1 1 0 0 0 0 0 0 0 0 0 0 0 0 0 0 0 0 0 0 0 0 0 0 
0 0 0 0 0 0 0 0 0 0 0 0 0 0 0 0 0 0 0 0 3 12 12 11 9 10 14 18 18 39 101 137 136 121 133 163 180 195 176 164 154 157 131 110 117 124 128 128 128 135 166 190 191 191 188 185 181 183 184 189 202 195 192 168 139 140 150 151 147 155 176 181 193 212 208 199 191 173 138 114 115 130 158 193 195 205 188 168 113 92 93 93 75 23 16 8 5 5 6 
6 7 7 5 3 1 1 0 0 0 0 0 0 0 0 0 0 0 0 0 0 0 0 0 0 0 0 0 0 0 0 0 0 0 0 0 0 0 0 0 0 0 0 0 0 0 0 0 0 2 12 12 11 10 10 11 15 17 20 58 126 129 127 127 147 177 195 195 183 165 152 146 121 110 111 113 116 124 146 172 184 186 184 180 177 172 173 167 181 182 169 190 183 153 147 153 151 145 166 
189 180 201 208 208 200 198 192 152 143 141 158 173 174 173 149 126 124 89 78 102 108 42 13 10 10 7 6 6 6 8 14 6 2 1 1 0 0 0 0 0 0 0 0 0 0 0 0 0 0 0 0 0 0 0 0 0 0 0 0 0 0 0 0 0 0 0 0 0 0 0 0 0 0 0 0 0 0 0 10 12 7 7 6 6 10 17 23 32 83 116 110 107 133 171 181 196 196 175 
157 156 141 122 121 126 133 156 165 195 211 202 202 194 191 196 202 200 198 186 188 210 213 194 183 187 186 180 190 196 211 218 206 206 198 211 203 200 174 169 167 164 135 112 105 104 108 89 111 114 62 21 12 2 2 4 5 6 6 8 10 5 0 1 1 0 0 0 0 0 0 0 0 0 0 0 0 0 0 0 0 0 0 0 0 0 0 0 0 0 0 0 0 0 0 0 0 0 0 
0 0 0 0 0 0 0 0 0 3 8 5 3 3 3 5 12 20 25 43 95 101 88 106 122 121 168 174 176 168 165 153 131 134 141 153 167 199 216 221 221 226 232 223 233 225 212 211 213 211 208 208 198 195 204 210 213 218 222 238 240 234 244 218 227 174 169 176 166 125 102 91 98 98 96 100 87 84 54 33 26 15 2 0 0 2 3 5 8 8 1 0 1 1 0 0 0 0 0 
0 0 0 0 0 0 0 0 0 0 0 0 0 0 0 0 0 0 0 0 0 0 0 0 0 0 0 0 0 0 0 0 0 0 0 0 0 0 0 3 3 2 1 0 0 8 15 23 28 53 93 98 77 65 78 90 112 128 158 160 151 147 139 154 175 197 207 207 214 215 222 228 223 219 217 202 192 199 199 194 190 187 185 187 193 198 200 222 234 217 206 221 214 204 188 165 147 124 104 
92 88 105 108 104 81 56 48 46 42 30 21 0 0 0 0 1 3 8 8 0 0 1 1 0 0 0 0 0 0 0 0 0 0 0 0 0 0 0 0 0 0 0 0 0 0 0 0 0 0 0 0 0 0 0 0 0 0 0 0 0 0 0 0 0 0 0 0 2 5 4 4 3 2 4 11 16 22 25 42 59 41 50 79 73 75 72 94 99 95 108 97 86 89 89 106 141 167 174 
163 161 160 141 152 122 114 129 138 138 133 129 113 106 124 120 115 134 120 162 155 183 147 97 74 75 67 76 73 64 66 91 97 97 58 34 33 30 22 8 3 0 3 3 2 2 2 9 6 0 0 1 1 0 0 0 0 0 0 0 0 0 0 0 0 0 0 0 0 0 0 0 0 0 0 0 0 0 0 0 0 0 0 0 0 0 0 0 0 0 0 0 0 0 0 0 0 0 3 
3 3 3 2 1 6 11 15 18 25 25 26 39 78 76 71 72 73 76 73 77 81 70 79 81 96 103 97 96 105 111 96 83 90 92 70 87 105 106 106 104 85 71 87 87 97 117 102 93 90 110 107 117 125 118 76 74 73 64 65 89 98 95 55 34 32 28 18 7 2 0 2 1 1 2 4 5 1 0 0 1 1 0 0 0 0 0 0 0 0 0 0 0 0 0 0 0 0 0 
0 0 0 0 0 0 0 0 0 0 0 0 0 0 0 0 0 0 0 0 0 0 0 0 0 0 0 0 0 0 0 0 0 0 3 10 11 17 24 30 32 42 81 87 76 75 79 82 79 77 89 110 144 150 163 165 127 118 120 122 113 116 124 105 89 106 114 114 113 110 103 91 112 126 125 136 119 109 138 167 122 104 126 109 103 103 93 87 88 102 107 97 58 38 33 27 16 10 1 
0 0 0 0 1 1 0 0 0 0 1 1 0 0 0 0 0 0 0 0 0 0 0 0 0 0 0 0 0 0 0 0 0 0 0 0 0 0 0 0 0 0 0 0 0 0 0 0 0 0 0 0 0 0 0 0 0 0 0 0 0 0 0 0 4 5 9 17 34 40 52 88 103 93 86 91 100 100 104 119 142 148 166 184 199 186 159 166 189 189 187 171 145 137 146 144 143 139 145 
142 134 140 164 173 179 171 178 187 192 154 159 129 150 140 131 114 103 99 100 98 91 59 43 29 20 11 9 0 0 0 0 0 0 0 0 0 0 0 0 1 0 0 0 0 0 0 0 0 0 0 0 0 0 0 0 0 0 0 0 0 0 0 0 0 0 0 0 0 0 0 0 0 0 0 0 0 0 0 0 0 0 0 0 0 0 0 0 0 0 0 0 0 2 4 5 10 27 34 
44 73 92 86 86 98 108 115 114 119 134 147 139 191 201 203 190 202 208 205 214 187 196 195 187 191 192 191 186 184 180 181 182 181 200 197 188 195 184 180 157 173 175 151 151 119 92 70 82 90 67 37 28 19 11 7 2 0 0 0 0 0 0 0 0 0 0 0 0 0 0 0 0 0 0 0 0 0 0 0 0 0 0 0 0 0 0 0 0 0 0 0 0 0 0 0 0 0 0 
0 0 0 0 0 0 0 0 0 0 0 0 0 0 0 0 0 0 0 0 0 0 0 0 2 3 9 19 33 42 62 88 89 83 86 89 88 83 91 110 125 127 149 152 141 125 150 162 181 200 191 180 170 160 164 160 164 154 160 158 157 155 164 172 151 159 162 147 158 169 176 181 134 83 58 59 71 96 94 55 30 25 15 9 7 1 0 0 0 0 1 1 1 1 1 2 3 3 3 
1 0 0 0 0 0 0 0 0 0 0 0 0 0 0 0 0 0 0 0 0 0 0 0 0 0 0 0 0 0 0 0 0 0 0 0 0 0 0 0 0 0 0 0 0 0 0 0 0 0 0 0 0 4 7 10 17 23 25 38 64 80 78 76 77 68 66 65 84 112 135 132 133 127 111 121 142 155 159 144 143 138 113 126 117 122 109 122 125 124 126 132 153 149 124 137 150 160 141 
157 142 116 79 61 64 84 118 100 54 28 20 20 14 8 1 0 0 0 0 0 0 0 1 1 1 1 1 2 0 0 0 0 0 0 0 0 0 0 0 0 0 0 0 0 0 0 0 0 0 0 0 0 0 0 0 0 0 0 0 0 0 0 0 0 0 0 0 0 0 0 0 0 0 0 0 0 0 0 0 0 0 1 7 10 15 21 24 29 52 73 87 86 81 68 59 62 77 101 
119 117 118 118 120 129 146 155 153 139 134 126 103 110 109 112 106 121 130 134 128 124 135 126 110 100 124 145 150 146 126 109 79 64 69 96 126 103 57 28 22 21 14 7 1 0 0 0 0 0 0 0 1 1 1 1 1 1 0 0 0 0 0 0 0 0 0 0 0 0 0 0 0 0 0 0 0 0 0 0 0 0 0 0 0 0 0 0 0 0 0 0 0 0 0 0 0 0 0 
0 0 0 0 0 0 0 0 0 0 0 0 0 5 10 11 18 24 26 45 68 88 91 84 73 62 57 67 86 114 109 101 105 108 118 131 142 153 150 137 131 116 119 118 115 108 122 121 137 142 134 144 141 126 119 114 130 138 127 112 92 71 64 75 105 131 102 60 29 22 19 13 6 0 0 0 0 0 0 0 0 0 1 1 1 1 1 0 0 0 0 0 0 0 0 0 0 0 0 
0 0 0 0 0 0 0 0 0 0 0 0 0 0 0 0 0 0 0 0 0 0 0 0 0 0 0 0 0 0 0 0 0 0 0 0 0 0 0 0 0 0 3 7 10 15 22 25 38 57 82 91 87 79 67 60 65 69 77 85 92 101 107 116 125 133 142 160 150 138 126 124 122 114 111 118 116 127 140 143 167 155 130 120 111 116 126 129 116 94 74 69 79 112 133 96 60 30 21 
17 12 4 0 0 0 0 0 0 0 0 0 1 1 1 1 1 0 0 0 0 0 0 0 0 0 0 0 0 0 0 0 0 0 0 0 0 0 0 0 0 0 0 0 0 0 0 0 0 0 0 0 0 0 0 0 0 0 0 0 0 0 0 0 0 0 0 0 0 0 0 0 5 9 12 18 23 33 52 72 95 93 83 74 66 61 62 69 77 87 101 108 119 122 122 130 148 139 134 
125 120 120 112 112 114 117 125 132 141 149 142 124 121 121 115 108 113 112 96 84 77 84 112 128 95 60 30 19 17 11 2 0 0 0 0 0 0 0 0 1 1 1 2 1 1 0 0 0 0 0 0 0 0 0 0 0 0 0 0 0 0 0 0 0 0 0 0 0 0 0 0 0 0 0 0 0 0 0 0 0 0 0 0 0 0 0 0 0 0 0 0 0 0 0 0 0 0 0 
0 0 2 5 10 14 21 28 49 64 93 91 89 83 73 65 63 68 75 81 99 115 125 121 113 112 121 126 133 123 114 115 112 110 112 119 125 125 134 130 128 120 125 127 121 102 91 87 79 80 83 94 114 123 92 52 23 18 17 9 1 0 0 0 0 0 0 0 0 1 1 1 2 1 1 0 0 0 0 0 0 0 0 0 0 0 0 0 0 0 0 0 0 0 0 0 0 0 0 
0 0 0 0 0 0 0 0 0 0 0 0 0 0 0 0 0 0 0 0 0 0 0 0 0 0 0 0 0 0 0 0 4 6 13 17 22 38 61 79 86 92 88 78 70 64 63 70 81 99 110 117 115 112 104 104 113 129 118 108 107 109 113 114 118 117 121 128 126 118 108 112 114 114 99 87 77 72 83 93 100 119 103 56 27 20 19 18 9 1 0 0 0 0 0 0 0 0 0 
1 1 2 1 0 0 0 0 0 0 0 0 0 0 0 0 0 0 0 0 0 0 0 0 0 0 0 0 0 0 0 0 0 0 0 0 0 0 0 0 0 0 0 0 0 0 0 0 0 0 0 0 0 0 0 0 0 0 0 0 0 3 5 9 16 20 24 37 47 54 85 93 82 75 68 60 65 78 91 94 106 110 110 103 101 113 131 122 112 111 115 116 116 117 117 117 119 114 110 
104 107 104 100 90 87 75 71 85 96 108 117 51 20 19 20 20 18 8 1 0 0 0 0 0 0 0 0 0 1 1 2 1 0 0 0 0 0 0 0 0 0 0 0 0 0 0 0 0 0 0 0 0 0 0 0 0 0 0 0 0 0 0 0 0 0 0 0 0 0 0 0 0 0 0 0 0 0 0 0 0 0 0 0 0 0 0 0 0 0 0 6 5 13 19 22 23 21 19 
36 90 92 85 76 72 68 72 80 84 92 96 103 103 106 117 119 118 112 107 103 109 121 118 111 108 115 114 114 104 101 99 85 83 83 79 82 95 103 113 83 27 18 18 19 20 16 7 0 0 0 0 0 0 0 0 0 0 1 1 2 1 0 0 0 0 0 0 0 0 0 0 0 0 0 0 0 0 0 0 0 0 0 0 0 0 0 0 0 0 0 0 0 0 0 0 0 0 0 
0 0 0 0 0 0 0 0 0 0 0 0 0 0 0 0 0 0 0 0 0 1 5 9 15 20 21 21 21 15 44 89 94 87 80 78 77 79 85 93 91 95 103 118 122 112 113 116 112 108 108 120 122 111 106 115 118 124 114 107 98 94 92 88 88 95 104 107 91 41 22 16 17 20 19 13 6 1 0 0 0 0 0 0 0 0 0 1 1 2 1 0 0 0 0 0 0 0 0 
0 0 0 0 0 0 0 0 0 0 0 0 0 0 0 0 0 0 0 0 0 0 0 0 0 0 0 0 0 0 0 0 0 0 0 0 0 0 0 0 0 0 0 0 0 0 0 0 0 0 0 3 7 11 18 21 20 21 15 15 43 83 96 94 89 85 87 93 103 104 102 102 111 119 113 115 117 114 112 121 132 131 126 121 123 130 125 113 110 104 102 103 101 105 110 110 88 43 27 
20 15 18 19 17 12 6 1 0 0 0 0 0 0 0 0 0 1 1 2 1 0 0 0 0 0 0 0 0 0 0 0 0 0 0 0 0 0 0 0 0 0 0 0 0 0 0 0 0 0 0 0 0 0 0 0 0 0 0 0 0 0 0 0 0 0 0 0 0 0 0 0 0 0 0 0 0 0 0 0 2 6 8 13 19 20 21 15 15 19 38 73 93 98 101 100 101 116 117 
107 104 105 121 120 114 116 114 113 125 129 128 130 126 118 121 123 119 114 115 119 117 113 111 107 84 42 30 26 19 16 18 18 16 11 6 1 0 0 0 0 0 0 0 0 0 1 1 2 1 0 0 0 0 0 0 0 0 0 0 0 0 0 0 0 0 0 0 0 0 0 0 0 0 0 0 0 0 0 0 0 0 0 0 0 0 0 0 0 0 0 0 0 0 0 0 0 0 0 
0 0 0 0 0 0 0 0 0 0 0 4 7 10 17 19 22 17 14 19 25 33 60 87 103 109 114 124 128 119 114 118 127 119 111 111 119 124 129 130 127 133 135 127 122 133 127 125 126 129 126 117 101 71 40 32 30 26 19 17 17 17 15 11 6 1 0 0 0 0 0 0 0 0 0 1 1 2 1 0 0 0 0 0 0 0 0 0 0 0 0 0 0 0 0 0 0 0 0 
0 0 0 0 0 0 0 0 0 0 0 0 0 0 0 0 0 0 0 0 0 0 0 0 0 0 0 0 0 0 0 0 0 0 0 0 0 0 0 0 1 8 8 14 18 21 17 13 15 23 29 33 44 71 96 109 125 132 127 124 125 126 126 120 121 122 118 121 123 126 132 134 133 124 133 136 132 128 130 121 95 58 35 33 32 28 24 19 16 16 16 14 10 5 0 0 0 0 0 
0 0 0 0 0 1 1 2 1 0 0 0 0 0 0 0 0 0 0 0 0 0 0 0 0 0 0 0 0 0 0 0 0 0 0 0 0 0 0 0 0 0 0 0 0 0 0 0 0 0 0 0 0 0 0 0 0 0 0 0 0 0 0 0 0 0 0 0 0 0 8 7 12 16 21 17 14 14 22 29 33 36 39 48 70 99 114 117 118 118 124 131 130 126 118 115 117 117 124 
134 126 129 133 137 134 129 118 101 73 50 43 33 32 30 26 21 18 15 17 16 14 10 4 0 0 0 0 0 0 0 0 0 0 1 1 2 1 0 0 0 0 0 0 0 0 0 0 0 0 0 0 0 0 0 0 0 0 0 0 0 0 0 0 0 0 0 0 0 0 0 0 0 0 0 0 0 0 0 0 0 0 0 0 0 0 0 0 0 0 0 0 0 0 0 0 0 0 0 
4 7 10 15 20 18 14 13 22 29 33 36 38 37 43 58 80 94 103 106 110 122 126 121 119 120 122 122 124 135 133 134 125 124 116 105 83 62 55 48 42 32 32 30 26 19 16 17 17 16 14 10 3 0 0 0 0 0 0 0 0 0 0 0 1 2 1 0 0 0 0 0 0 0 0 0 0 0 0 0 0 0 0 0 0 0 0 0 0 0 0 0 0 0 0 0 0 0 0 
